# This file uses centimeters as units for non-parametric coordinates.

mtllib floor.mtl
g default
v 807.907867 419.640708 1382.301940
v 1745.983455 419.640708 1382.301940
v 807.907867 419.640708 444.226352
v 1745.983455 419.640708 444.226352
vt 0.000000 0.000000
vt 1.000000 0.000000
vt 0.000000 1.000000
vt 1.000000 1.000000
vn 0.000000 1.000000 0.000000
vn 0.000000 1.000000 0.000000
vn 0.000000 1.000000 0.000000
vn 0.000000 1.000000 0.000000
g pPlane37
usemtl initialShadingGroup
f 1/1/1 2/2/2 4/4/3 3/3/4
