# Wavefront Obj file
# 
# verts: 84 uv-s: 164
mtllib ceiling.mtl

g polySurface4

v -476.392395 509.643402 -476.392395
v -476.392395 509.643402 476.392273
v -476.392395 509.643402 22.231277
v -476.392395 518.161438 22.415848
v -476.392395 518.161438 31.035263
v -476.392395 509.643402 31.219498
v -360.982727 518.161438 22.415848
v -352.363342 518.161438 22.415848
v -352.307312 509.643402 22.231277
v -352.363342 518.161438 31.035263
v -352.307312 509.643402 31.219498
v -360.982727 518.161438 31.035263
v -361.038574 509.643402 31.219498
v -361.038574 509.643402 22.231277
v -352.307312 509.643402 -476.392395
v -352.363342 518.161438 -476.392395
v -360.982727 518.161438 -476.392395
v -361.038574 509.643402 -476.392395
v -352.363342 518.161438 -25.100616
v -361.038574 518.161438 -20.685669
v -361.038574 509.643402 -20.377977
v -361.038574 518.161438 -29.305084
v -361.038574 509.643402 -29.613340
v -352.307312 509.643402 -24.995377
v -352.363342 518.161438 150.689880
v -361.038574 518.161438 155.169632
v -361.038574 509.643402 155.453583
v -361.038574 518.161438 146.549988
v -361.038574 509.643402 146.266586
v -352.307312 509.643402 150.859818
v -476.392395 509.643402 -29.613340
v -476.392395 518.161438 -29.305084
v -476.392395 518.161438 -20.685669
v -476.392395 509.643402 -20.377977
v -361.038574 509.643402 476.392273
v -360.982727 518.161438 476.392273
v -352.363342 518.161438 476.392273
v -352.307312 509.643402 476.392273
v -476.392395 509.643402 146.266586
v -476.392395 518.161438 146.549988
v -476.392395 518.161438 155.169632
v -476.392395 509.643402 155.453583
v 476.392273 509.643402 31.219498
v 476.392273 518.161438 31.035263
v 361.038452 518.161438 31.035263
v 361.038452 509.643402 31.219498
v 476.392273 518.161438 22.415848
v 361.038452 518.161438 22.415848
v 476.392273 509.643402 22.231277
v 361.038452 509.643402 22.231277
v 352.307251 509.643402 22.231277
v 352.307251 518.161438 22.415848
v 352.363281 518.161438 -24.914490
v 352.307251 509.643402 -24.995377
v 361.038452 518.161438 -20.685669
v 361.038452 509.643402 -20.377977
v 352.307251 509.643402 31.219498
v 352.307251 518.161438 31.035263
v 361.038452 518.161438 146.549988
v 361.038452 509.643402 146.266586
v 352.363281 518.161438 150.690033
v 352.307251 509.643402 150.859818
v 361.038452 509.643402 -476.392395
v 360.982605 518.161438 -476.392395
v 361.038452 518.161438 -29.305084
v 361.038452 509.643402 -29.613340
v 352.363281 518.161438 -476.392395
v 352.307251 509.643402 -476.392395
v 476.392273 518.161438 -29.305084
v 476.392273 509.643402 -29.613340
v 476.392273 518.161438 -20.685669
v 476.392273 509.643402 -20.377977
v 361.038452 509.643402 155.453583
v 361.038452 518.161438 155.169632
v 360.982605 518.161438 476.392273
v 361.038452 509.643402 476.392273
v 352.363281 518.161438 476.392273
v 352.307251 509.643402 476.392273
v 476.392273 518.161438 146.549988
v 476.392273 509.643402 146.266586
v 476.392273 518.161438 155.169632
v 476.392273 509.643402 155.453583
v 476.392273 509.643402 476.392273
v 476.392273 509.643402 -476.392395
# 84 positions

vt 0.462846 0.968622
vt 0.463030 0.977126
vt 0.463030 0.977126
vt 0.462846 0.968622
vt 0.188648 0.955942
vt 0.191687 0.955978
vt 0.192165 0.915294
vt 0.189126 0.915258
vt 0.471635 0.977126
vt 0.471820 0.968622
vt 0.471820 0.968622
vt 0.471635 0.977126
vt 0.471820 0.968622
vt 0.471635 0.977126
vt 0.519077 0.977126
vt 0.518972 0.968622
vt 0.192201 0.912255
vt 0.207358 0.915492
vt 0.208951 0.912452
vt 0.514362 0.968622
vt 0.514669 0.977126
vt 0.462846 0.968622
vt 0.463030 0.977126
vt 0.463030 0.977126
vt 0.462846 0.968622
vt 0.189161 0.912220
vt 0.195119 0.663843
vt 0.192079 0.663807
vt 0.471820 0.968622
vt 0.471635 0.977126
vt 0.347697 0.977126
vt 0.347980 0.968622
vt 0.146981 0.911724
vt 0.148404 0.914799
vt 0.343394 0.968622
vt 0.343564 0.977126
vt 0.969656 0.968622
vt 0.969656 0.977126
vt 0.523275 0.977126
vt 0.523583 0.968622
vt 0.368005 0.917359
vt 0.368041 0.914320
vt 0.210397 0.915527
vt 0.969656 0.977126
vt 0.969656 0.968622
vt 0.523275 0.977126
vt 0.523583 0.968622
vt 0.206880 0.956156
vt 0.209919 0.956192
vt 0.514362 0.968622
vt 0.514669 0.977126
vt 0.338808 0.968622
vt 0.339091 0.977126
vt 0.018376 0.977126
vt 0.018376 0.968622
vt 0.145366 0.914764
vt 0.032164 0.910375
vt 0.032128 0.913414
vt 0.018376 0.968622
vt 0.018376 0.977126
vt 0.347697 0.977126
vt 0.347980 0.968622
vt 0.144888 0.955428
vt 0.147927 0.955464
vt 0.338808 0.968622
vt 0.339091 0.977126
vt 0.672867 0.767864
vt 0.757938 0.767864
vt 0.757938 0.531177
vt 0.672867 0.531177
vt 0.672867 0.897537
vt 0.757938 0.897537
vt 0.757938 0.866113
vt 0.672867 0.866113
vt 0.020737 0.027936
vt 0.020737 0.059139
vt 0.486289 0.059139
vt 0.486289 0.027936
vt 0.979828 0.010376
vt 0.514276 0.010376
vt 0.514276 0.225461
vt 0.979828 0.225461
vt 0.454073 0.888532
vt 0.539144 0.888532
vt 0.539144 0.559040
vt 0.454073 0.559040
vt 0.020737 0.357385
vt 0.486289 0.357385
vt 0.672867 0.859484
vt 0.757938 0.859484
vt 0.757938 0.774639
vt 0.672867 0.774639
vt 0.514276 0.304510
vt 0.979828 0.304510
vt 0.462846 0.968622
vt 0.462846 0.968622
vt 0.463030 0.977126
vt 0.463030 0.977126
vt 0.192593 0.620065
vt 0.192115 0.660729
vt 0.195155 0.660764
vt 0.195632 0.620101
vt 0.471635 0.977126
vt 0.471635 0.977126
vt 0.471820 0.968622
vt 0.471820 0.968622
vt 0.518972 0.968622
vt 0.518891 0.977126
vt 0.211803 0.664019
vt 0.210348 0.660944
vt 0.514669 0.977126
vt 0.514362 0.968622
vt 0.347980 0.968622
vt 0.347697 0.977126
vt 0.151394 0.660251
vt 0.149899 0.663292
vt 0.343564 0.977126
vt 0.343394 0.968622
vt 0.969656 0.968622
vt 0.523583 0.968622
vt 0.523275 0.977126
vt 0.969656 0.977126
vt 0.370995 0.662850
vt 0.213386 0.660979
vt 0.370959 0.665889
vt 0.969656 0.977126
vt 0.969656 0.968622
vt 0.523583 0.968622
vt 0.523275 0.977126
vt 0.213864 0.620315
vt 0.210826 0.620279
vt 0.514669 0.977126
vt 0.514362 0.968622
vt 0.338808 0.968622
vt 0.018376 0.968622
vt 0.018376 0.977126
vt 0.339091 0.977126
vt 0.148356 0.660215
vt 0.035117 0.658905
vt 0.035082 0.661943
vt 0.018376 0.977126
vt 0.018376 0.968622
vt 0.347980 0.968622
vt 0.347697 0.977126
vt 0.151872 0.619587
vt 0.148833 0.619551
vt 0.339091 0.977126
vt 0.338808 0.968622
vt 0.365268 0.383449
vt 0.066404 0.382789
vt 0.066167 0.490208
vt 0.365031 0.490868
vt 0.529005 0.383810
vt 0.489327 0.383723
vt 0.489090 0.491142
vt 0.528768 0.491230
vt 0.953654 0.384748
vt 0.537606 0.383829
vt 0.537368 0.491248
vt 0.953417 0.492167
vt 0.480957 0.383704
vt 0.373823 0.383468
vt 0.373586 0.490887
vt 0.480720 0.491123
# 164 texture coordinates

vn 0.000000 -0.021624 -0.999766
vn 0.000000 -0.021624 -0.999766
vn 0.000000 -0.021624 -0.999766
vn 0.000000 -0.021624 -0.999766
vn 0.000000 -1.000000 0.000000
vn 0.000000 -1.000000 0.000000
vn 0.000000 -1.000000 0.000000
vn 0.000000 -1.000000 0.000000
vn 0.000000 -0.021663 0.999765
vn 0.000000 -0.021663 0.999765
vn 0.000000 -0.021663 0.999765
vn 0.000000 -0.021663 0.999765
vn -0.999978 -0.006578 0.000000
vn -0.999978 -0.006578 0.000000
vn -0.999978 -0.006578 0.000000
vn -0.999978 -0.006578 0.000000
vn 0.000000 -1.000000 0.000000
vn 0.000000 -1.000000 0.000000
vn 0.000000 -1.000000 0.000000
vn 0.999994 -0.003283 -0.000652
vn 0.999994 -0.003283 -0.000652
vn 0.999994 -0.003283 -0.000652
vn 0.999994 -0.003283 -0.000652
vn 0.000000 -0.021624 -0.999766
vn 0.000000 -0.021624 -0.999766
vn 0.000000 -0.021624 -0.999766
vn 0.000000 -0.021624 -0.999766
vn 0.000000 -1.000000 0.000000
vn 0.000000 -1.000000 0.000000
vn 0.000000 -1.000000 0.000000
vn 0.000000 -0.021663 0.999765
vn 0.000000 -0.021663 0.999765
vn 0.000000 -0.021663 0.999765
vn 0.000000 -0.021663 0.999765
vn 0.999995 -0.003280 0.000242
vn 0.999995 -0.003280 0.000242
vn 0.999995 -0.003280 0.000242
vn 0.999995 -0.003280 0.000242
vn 0.000000 -1.000000 0.000000
vn 0.000000 -1.000000 0.000000
vn -0.999978 -0.006578 0.000000
vn -0.999978 -0.006578 0.000000
vn -0.999978 -0.006578 0.000000
vn -0.999978 -0.006578 0.000000
vn 0.999995 -0.003279 0.000062
vn 0.999995 -0.003279 0.000062
vn 0.999995 -0.003279 0.000062
vn 0.999995 -0.003279 0.000062
vn 0.000000 -1.000000 0.000000
vn 0.000000 -1.000000 0.000000
vn 0.000000 -1.000000 0.000000
vn -0.999978 -0.006578 0.000000
vn -0.999978 -0.006578 0.000000
vn 0.000000 -0.036165 0.999346
vn 0.000000 -0.036165 0.999346
vn 0.000000 -0.036165 0.999346
vn 0.000000 -0.036165 0.999346
vn 0.000000 -1.000000 0.000000
vn 0.000000 -1.000000 0.000000
vn 0.000000 -0.036099 -0.999348
vn 0.000000 -0.036099 -0.999348
vn 0.000000 -0.036099 -0.999348
vn 0.000000 -0.036099 -0.999348
vn 0.999995 -0.003280 -0.000087
vn 0.999995 -0.003280 -0.000087
vn 0.999995 -0.003280 -0.000087
vn 0.999995 -0.003280 -0.000087
vn 0.000000 -1.000000 0.000000
vn 0.000000 -1.000000 0.000000
vn 0.000000 -1.000000 0.000000
vn -0.999978 -0.006578 0.000000
vn -0.999978 -0.006578 0.000000
vn 0.000000 -0.033252 0.999447
vn 0.000000 -0.033252 0.999447
vn 0.000000 -0.033252 0.999447
vn 0.000000 -0.033252 0.999447
vn 0.000000 -1.000000 0.000000
vn 0.000000 -1.000000 0.000000
vn 0.000000 -0.033317 -0.999445
vn 0.000000 -0.033317 -0.999445
vn 0.000000 -0.033317 -0.999445
vn 0.000000 -0.033317 -0.999445
vn 0.000000 -1.000000 0.000000
vn 0.000000 -1.000000 0.000000
vn 0.000000 -1.000000 0.000000
vn 0.000000 -1.000000 0.000000
vn 0.000000 -1.000000 0.000000
vn 0.000000 -1.000000 0.000000
vn 0.000000 -1.000000 0.000000
vn 0.000000 -1.000000 0.000000
vn 0.000000 -1.000000 0.000000
vn 0.000000 -1.000000 0.000000
vn 0.000000 -1.000000 0.000000
vn 0.000000 -1.000000 0.000000
vn 0.000000 -1.000000 0.000000
vn 0.000000 -1.000000 0.000000
vn 0.000000 -1.000000 0.000000
vn 0.000000 -1.000000 0.000000
vn 0.000000 -1.000000 0.000000
vn 0.000000 -1.000000 0.000000
vn 0.000000 -1.000000 0.000000
vn 0.000000 -1.000000 0.000000
vn 0.000000 -1.000000 0.000000
vn 0.000000 -1.000000 0.000000
vn 0.000000 -1.000000 0.000000
vn 0.000000 -1.000000 0.000000
vn 0.000000 -1.000000 0.000000
vn 0.000000 -1.000000 0.000000
vn 0.000000 -1.000000 0.000000
vn 0.000000 -1.000000 0.000000
vn 0.000000 -0.021624 -0.999766
vn 0.000000 -0.021624 -0.999766
vn 0.000000 -0.021624 -0.999766
vn 0.000000 -0.021624 -0.999766
vn 0.000000 -1.000000 0.000000
vn 0.000000 -1.000000 0.000000
vn 0.000000 -1.000000 0.000000
vn 0.000000 -1.000000 0.000000
vn 0.000000 -0.021663 0.999765
vn 0.000000 -0.021663 0.999765
vn 0.000000 -0.021663 0.999765
vn 0.000000 -0.021663 0.999765
vn 0.999994 -0.003298 0.000593
vn 0.999995 -0.003298 0.000593
vn 0.999994 -0.003298 0.000593
vn 0.999994 -0.003298 0.000593
vn 0.000000 -1.000000 0.000000
vn 0.000000 -1.000000 0.000000
vn -1.000000 0.000000 0.000000
vn -1.000000 0.000000 0.000000
vn -1.000000 0.000000 0.000000
vn -1.000000 0.000000 0.000000
vn -1.000000 0.000000 0.000000
vn -1.000000 0.000000 0.000000
vn -1.000000 0.000000 0.000000
vn -1.000000 0.000000 0.000000
vn 0.000000 -1.000000 0.000000
vn 0.000000 -1.000000 0.000000
vn 0.999995 -0.003294 -0.000234
vn 0.999995 -0.003294 -0.000234
vn 0.999995 -0.003294 -0.000234
vn 0.999995 -0.003294 -0.000234
vn -0.999995 -0.003279 0.000062
vn -0.999995 -0.003279 0.000062
vn -0.999995 -0.003279 0.000062
vn -0.999995 -0.003279 0.000062
vn 0.000000 -1.000000 0.000000
vn 0.000000 -1.000000 0.000000
vn 0.000000 -1.000000 0.000000
vn 0.999978 -0.006578 0.000000
vn 0.999978 -0.006578 0.000000
vn 0.999978 -0.006578 0.000000
vn 0.999978 -0.006578 0.000000
vn 0.000000 -0.036165 0.999346
vn 0.000000 -0.036165 0.999346
vn 0.000000 -0.036165 0.999346
vn 0.000000 -0.036165 0.999346
vn 0.000000 -1.000000 0.000000
vn 0.000000 -1.000000 0.000000
vn 0.000000 -0.036099 -0.999348
vn 0.000000 -0.036099 -0.999348
vn 0.000000 -0.036099 -0.999348
vn 0.000000 -0.036099 -0.999348
vn -0.999995 -0.003280 -0.000087
vn -0.999995 -0.003280 -0.000087
vn -0.999995 -0.003280 -0.000087
vn -0.999995 -0.003280 -0.000087
vn 0.000000 -1.000000 0.000000
vn 0.000000 -1.000000 0.000000
vn 0.000000 -1.000000 0.000000
vn 0.999978 -0.006578 0.000000
vn 0.999978 -0.006578 0.000000
vn 0.999978 -0.006578 0.000000
vn 0.999978 -0.006578 0.000000
vn 0.000000 -0.033252 0.999447
vn 0.000000 -0.033252 0.999447
vn 0.000000 -0.033252 0.999447
vn 0.000000 -0.033252 0.999447
vn 0.000000 -1.000000 0.000000
vn 0.000000 -1.000000 0.000000
vn 0.000000 -0.033317 -0.999445
vn 0.000000 -0.033317 -0.999445
vn 0.000000 -0.033317 -0.999445
vn 0.000000 -0.033317 -0.999445
vn 0.000000 -1.000000 0.000000
vn 0.000000 -1.000000 0.000000
vn 0.000000 -1.000000 0.000000
vn 0.000000 -1.000000 0.000000
vn 0.000000 -1.000000 0.000000
vn 0.000000 -1.000000 0.000000
vn 0.000000 -1.000000 0.000000
vn 0.000000 -1.000000 0.000000
vn 0.000000 -1.000000 0.000000
vn 0.000000 -1.000000 0.000000
vn 0.000000 -1.000000 0.000000
vn 0.000000 -1.000000 0.000000
vn 0.000000 -1.000000 0.000000
vn 0.000000 -1.000000 0.000000
vn 0.000000 -1.000000 0.000000
vn 0.000000 -1.000000 0.000000
# 200 normals

usemtl initialShadingGroup
s 1
f 6/1/1 5/2/2 12/3/3 13/4/4
s 2
f 5/5/5 4/6/6 7/7/7 12/8/8
f 8/17/17 7/7/7 20/18/18 19/19/19
f 10/26/28 8/17/17 52/27/29 58/28/30
f 12/8/8 10/26/28 25/33/39 28/34/40
f 22/43/51 20/18/18 33/48/58 32/49/59
f 26/56/68 25/33/39 37/57/69 36/58/70
f 7/7/7 8/17/17 10/26/28 12/8/8
f 44/99/115 45/100/116 48/101/117 47/102/118
f 52/27/29 53/109/127 55/110/128 48/101/117
f 45/100/116 59/115/137 61/116/138 58/28/30
f 64/123/147 65/124/148 53/109/127 67/125/149
f 59/115/137 79/145/179 81/146/180 74/138/168
f 55/110/128 53/109/127 65/124/148
f 52/27/29 48/101/117 45/100/116 58/28/30
f 61/116/138 59/115/137 74/138/168
f 19/19/19 20/18/18 22/43/51
f 28/34/40 25/33/39 26/56/68
s 3
f 4/9/9 3/10/10 14/11/11 7/12/12
s 4
f 9/13/13 8/14/14 19/15/15 24/16/16
f 16/44/52 15/45/53 24/16/16 19/15/15
s 5
f 7/12/20 14/11/21 21/20/22 20/21/23
s 6
f 11/22/24 10/23/25 58/24/26 57/25/27
s 7
f 8/14/31 9/13/32 51/29/33 52/30/34
s 8
f 13/4/35 12/3/36 28/31/37 29/32/38
s 9
f 10/23/41 11/22/42 30/35/43 25/36/44
f 25/36/44 30/35/43 38/59/71 37/60/72
s 10
f 18/37/45 17/38/46 22/39/47 23/40/48
s 11
f 17/41/49 16/42/50 19/19/19 22/43/51
s 12
f 23/40/54 22/39/55 32/46/56 31/47/57
s 13
f 20/21/60 21/20/61 34/50/62 33/51/63
s 14
f 27/52/64 26/53/65 36/54/66 35/55/67
s 15
f 29/32/73 28/31/74 40/61/75 39/62/76
s 16
f 28/34/40 26/56/68 41/63/77 40/64/78
s 17
f 26/53/79 27/52/80 42/65/81 41/66/82
s 18
f 42/67/83 27/68/84 35/69/85 2/70/86
s 19
f 34/71/87 21/72/88 14/73/89 3/74/90
s 20
f 9/75/91 24/76/92 54/77/93 51/78/94
f 24/76/92 15/87/103 68/88/104 54/77/93
s 21
f 78/79/95 38/80/96 30/81/97 62/82/98
f 30/81/97 11/93/109 57/94/110 62/82/98
s 22
f 1/83/99 18/84/100 23/85/101 31/86/102
s 23
f 6/89/105 13/90/106 29/91/107 39/92/108
s 24
f 43/95/111 46/96/112 45/97/113 44/98/114
s 25
f 47/103/119 48/104/120 50/105/121 49/106/122
s 26
f 51/29/123 54/107/124 53/108/125 52/30/126
s 27
f 48/104/129 55/111/130 56/112/131 50/105/132
s 28
f 46/96/133 60/113/134 59/114/135 45/97/136
s 29
f 58/24/139 61/117/140 62/118/141 57/25/142
s 30
f 63/119/143 66/120/144 65/121/145 64/122/146
s 31
f 67/126/150 53/108/151 54/107/152 68/127/153
s 32
f 66/120/154 70/128/155 69/129/156 65/121/157
s 33
f 65/124/148 69/130/158 71/131/159 55/110/128
s 34
f 55/111/160 71/132/161 72/133/162 56/112/163
s 35
f 73/134/164 76/135/165 75/136/166 74/137/167
s 36
f 74/138/168 75/139/169 77/140/170 61/116/138
s 37
f 61/117/171 77/141/172 78/142/173 62/118/174
s 38
f 60/113/175 80/143/176 79/144/177 59/114/178
s 39
f 74/137/181 81/147/182 82/148/183 73/134/184
s 40
f 82/149/185 83/150/186 76/151/187 73/152/188
s 41
f 72/153/189 49/154/190 50/155/191 56/156/192
s 42
f 84/157/193 70/158/194 66/159/195 63/160/196
s 43
f 43/161/197 80/162/198 60/163/199 46/164/200

# 63 faces
