# This file uses centimeters as units for non-parametric coordinates.

mtllib door_low.mtl
g default
v -458.365753 -210.485306 -0.000000
v 458.365570 -210.485306 -0.000000
v -458.365753 260.847046 -0.000000
v 458.365570 260.847046 -0.000000
vt 0.114215 0.511394
vt 0.813925 0.511394
vt 0.813925 0.871146
vt 0.114215 0.871146
vn 0.000000 0.000000 1.000000
vn 0.000000 0.000000 1.000000
vn 0.000000 0.000000 1.000000
vn 0.000000 0.000000 1.000000
g pPlane35
usemtl initialShadingGroup
f 1/1/1 2/2/2 4/3/3 3/4/4
