# This file uses centimeters as units for non-parametric coordinates.

mtllib floor_low.mtl
g default
v -476.392273 -0.000000 476.392273
v 476.392303 -0.000000 476.392273
v -476.392273 0.000000 -476.392273
v 476.392303 0.000000 -476.392273
vt 0.000000 0.000000
vt 1.000000 0.000000
vt 0.000000 1.000000
vt 1.000000 1.000000
vn 0.000000 1.000000 0.000000
vn 0.000000 1.000000 0.000000
vn 0.000000 1.000000 0.000000
vn 0.000000 1.000000 0.000000
s off
g pPlane39
usemtl initialShadingGroup
f 1/1/1 2/2/2 4/4/3 3/3/4
