# This file uses centimeters as units for non-parametric coordinates.

mtllib low_polly.mtl
g default
v -0.000000 -239.081818 476.572601
v 0.000000 239.081940 476.572601
v -0.000000 -239.081818 -476.572601
v 0.000000 239.081940 -476.572601
v -0.000000 -89.701591 476.572601
v -0.000000 -89.701591 -476.572601
v -0.000000 -206.230255 476.572601
v -0.000000 -206.230255 -476.572601
v -0.000000 -239.081818 -396.320801
v -0.000000 -206.230255 -396.320801
v -0.000000 -89.701591 -396.320801
v 0.000000 239.081940 -396.320801
v -0.000000 -239.081818 400.240295
v -0.000000 -206.230255 400.240295
v -0.000000 -89.701591 400.240295
v 0.000000 239.081940 400.240295
v 0.000000 129.792267 476.572601
v 0.000000 129.792267 400.240234
v 0.000000 129.792267 -396.320801
v 0.000000 129.792267 -476.572601
v -50.108589 195.475052 389.772980
v -50.108589 195.475052 -385.824402
v -41.762878 -128.877625 398.163391
v -41.762878 -128.877625 -395.582916
vt 0.841002 0.017782
vt 0.841002 0.048925
vt 0.917080 0.048925
vt 0.917080 0.017782
vt 0.917080 0.159393
vt 0.841002 0.159393
vt 0.841002 0.367472
vt 0.917080 0.367472
vt 0.085868 0.017782
vt 0.085868 0.048925
vt 0.087837 0.122255
vt 0.085868 0.159393
vt 0.085868 0.367472
vt 0.013505 0.017782
vt 0.013505 0.048925
vt 0.013505 0.159393
vt 0.013505 0.367472
vt 0.085868 0.471078
vt 0.013505 0.471078
vt 0.095791 0.429739
vt 0.917080 0.471078
vt 0.841002 0.471078
vt 0.831051 0.429739
vt 0.840302 0.122255
vt 0.960097 0.990804
vt 0.955176 0.938128
vt 0.994091 0.996473
vt 0.948273 0.937805
vt 0.954539 0.987130
vt 0.908371 0.940279
vt 0.908371 0.940279
vt 0.954539 0.987130
vt 0.948273 0.937805
vt 0.955176 0.938128
vt 0.960097 0.990804
vt 0.994091 0.996473
vn -1.000000 0.000000 0.000000
vn -1.000000 0.000000 0.000000
vn -1.000000 0.000000 0.000000
vn -1.000000 0.000000 0.000000
vn -1.000000 0.000000 0.000000
vn -1.000000 0.000000 0.000000
vn -1.000000 0.000000 0.000000
vn -1.000000 0.000000 0.000000
vn -1.000000 0.000000 0.000000
vn -1.000000 0.000000 0.000000
vn -1.000000 0.000000 0.000000
vn -1.000000 0.000000 0.000000
vn -1.000000 0.000000 0.000000
vn -1.000000 0.000000 0.000000
vn -1.000000 0.000000 0.000000
vn -1.000000 0.000000 0.000000
vn -0.049669 0.000000 0.998766
vn -0.049669 0.000000 0.998766
vn -0.049669 0.000000 0.998766
vn -1.000000 0.000000 0.000000
vn -1.000000 0.000000 0.000000
vn -1.000000 0.000000 0.000000
vn -1.000000 0.000000 0.000000
vn -1.000000 0.000000 0.000000
vn -1.000000 0.000000 0.000000
vn -1.000000 0.000000 0.000000
vn -1.000000 0.000000 0.000000
vn -1.000000 0.000000 0.000000
vn -1.000000 0.000000 0.000000
vn -1.000000 0.000000 0.000000
vn -1.000000 0.000000 0.000000
vn -1.000000 0.000000 0.000000
vn -1.000000 0.000000 0.000000
vn -1.000000 0.000000 0.000000
vn -1.000000 0.000000 0.000000
vn -1.000000 0.000000 0.000000
vn -1.000000 0.000000 0.000000
vn -1.000000 0.000000 0.000000
vn -1.000000 0.000000 0.000000
vn -0.204479 -0.000001 0.978871
vn -0.204479 -0.000001 0.978871
vn -0.204479 -0.000001 0.978871
vn -1.000000 0.000000 0.000000
vn -1.000000 0.000000 0.000000
vn -1.000000 0.000000 0.000000
vn -1.000000 0.000000 0.000000
vn -0.656472 0.754351 0.000000
vn -0.656472 0.754351 0.000000
vn -0.656472 0.754351 0.000000
vn -0.656472 0.754351 0.000000
vn -0.795055 -0.606538 0.000000
vn -0.795055 -0.606538 0.000000
vn -0.795055 -0.606538 0.000000
vn -0.795055 -0.606538 0.000000
vn -0.205023 0.000000 -0.978757
vn -0.205023 0.000000 -0.978757
vn -0.205023 0.000000 -0.978757
vn -0.684158 0.729334 0.000000
vn -0.684158 0.729334 0.000000
vn -0.684158 0.729334 0.000000
vn -0.684158 0.729334 0.000000
vn -0.879941 -0.475083 0.000000
vn -0.879941 -0.475083 0.000000
vn -0.879941 -0.475083 0.000000
vn -0.879941 -0.475083 0.000000
vn -0.017667 0.000000 -0.999844
vn -0.017667 0.000000 -0.999844
vn -0.017667 0.000000 -0.999844
g pPlane12
usemtl initialShadingGroup
f 9/1/1 10/2/2 8/3/3 3/4/4
f 6/5/5 11/6/6 19/7/7 20/8/8
f 6/5/9 8/3/10 10/2/11 11/6/12
f 13/9/13 14/10/14 10/2/15 9/1/16
f 23/25/17 14/26/18 15/27/19
f 18/13/20 19/7/21 11/6/22 15/12/23
f 1/14/24 7/15/25 14/10/26 13/9/27
f 14/10/28 7/15/29 5/16/30 15/12/31
f 17/17/32 18/13/33 15/12/34 5/16/35
f 16/18/36 18/13/37 17/17/38 2/19/39
f 21/28/40 18/29/41 16/30/42
f 4/21/43 20/8/44 19/7/45 12/22/46
f 12/22/47 22/23/48 21/20/49 16/18/50
f 18/13/51 21/20/52 22/23/53 19/7/54
f 12/31/55 19/32/56 22/33/57
f 11/6/58 24/24/59 23/11/60 15/12/61
f 24/24/62 10/2/63 14/10/64 23/11/65
f 10/34/66 24/35/67 11/36/68
