# This file uses centimeters as units for non-parametric coordinates.

mtllib floor.mtl
g default
v -476.392273 -0.000000 476.392303
v 476.392273 -0.000000 476.392303
v -476.392273 0.000000 -476.392303
v 476.392273 0.000000 -476.392303
v 475.346130 -0.000000 476.392303
v 475.346130 0.000000 -476.392303
v -476.392273 -0.000000 474.957428
v 475.346130 -0.000000 474.957428
v 476.392212 -0.000000 474.957428
v -475.399963 -0.000000 476.392303
v -475.399963 -0.000000 474.957428
v -475.399963 0.000000 -476.392303
v -476.392273 0.000000 -475.440979
v -475.399963 0.000000 -475.440979
v 475.346130 0.000000 -475.440979
v 476.392273 0.000000 -475.440979
vt 0.000000 0.000000
vt 1.000000 0.000000
vt 0.000000 1.000000
vt 1.000000 1.000000
vt 0.998902 0.000000
vt 0.998902 1.000000
vt 0.000000 0.001506
vt 0.998902 0.001506
vt 1.000000 0.001506
vt 0.001042 0.000000
vt 0.001042 0.001506
vt 0.001042 1.000000
vt 0.000000 0.999002
vt 0.001042 0.999002
vt 0.998902 0.999002
vt 1.000000 0.999002
vn 0.000000 1.000000 0.000000
vn 0.000000 1.000000 0.000000
vn 0.000000 1.000000 0.000000
vn 0.000000 1.000000 0.000000
vn 0.000000 1.000000 0.000000
vn 0.000000 1.000000 0.000000
vn 0.000000 1.000000 0.000000
vn 0.000000 1.000000 0.000000
vn 0.000000 1.000000 0.000000
vn 0.000000 1.000000 0.000000
vn 0.000000 1.000000 0.000000
vn 0.000000 1.000000 0.000000
vn 0.000000 1.000000 0.000000
vn 0.000000 1.000000 0.000000
vn 0.000000 1.000000 0.000000
vn 0.000000 1.000000 0.000000
s 1
g pPlane37
usemtl initialShadingGroup
f 13/13/1 14/14/2 12/12/3 3/3/4
f 6/6/5 15/15/6 16/16/7 4/4/8
f 1/1/9 10/10/10 11/11/11 7/7/12
f 9/9/13 8/8/14 5/5/15 2/2/16
f 11/11/11 10/10/10 5/5/15 8/8/14
f 12/12/3 14/14/2 15/15/6 6/6/5
f 7/7/12 11/11/11 14/14/2 13/13/1
f 15/15/6 14/14/2 11/11/11 8/8/14
f 16/16/7 15/15/6 8/8/14 9/9/13
