# This file uses centimeters as units for non-parametric coordinates.

mtllib light.mtl
g default
v 1563.143006 405.553102 65.427216
v 1560.740217 410.268686 65.427216
v 1556.998004 414.011054 65.427216
v 1552.282227 416.413726 65.427216
v 1547.054896 417.241596 65.427216
v 1541.827874 416.413726 65.427216
v 1537.112252 414.011054 65.427216
v 1533.369730 410.268686 65.427216
v 1530.967251 405.553102 65.427216
v 1530.139381 400.325810 65.427216
v 1563.970721 400.325810 65.427216
v 1563.143006 405.553102 512.131954
v 1560.740217 410.268686 512.131954
v 1556.998004 414.011054 512.131954
v 1552.282227 416.413726 512.131954
v 1547.054896 417.241596 512.131954
v 1541.827874 416.413726 512.131954
v 1537.112252 414.011054 512.131954
v 1533.369730 410.268686 512.131954
v 1530.967251 405.553102 512.131954
v 1530.139381 400.325810 512.131954
v 1563.970721 400.325810 512.131954
v 1547.054896 400.325810 65.427216
v 1547.054896 400.325810 512.131954
vt 0.978817 0.905317
vt 0.983729 0.895676
vt 0.950838 0.884989
vt 0.971166 0.912968
vt 0.961525 0.917880
vt 0.950838 0.919573
vt 0.940152 0.917880
vt 0.930511 0.912968
vt 0.922860 0.905317
vt 0.948784 0.487866
vt 0.917948 0.895676
vt 0.953767 0.487865
vt 0.953761 0.882045
vt 0.948793 0.882045
vt 0.959887 0.487866
vt 0.959856 0.882045
vt 0.967737 0.882046
vt 0.977570 0.487868
vt 0.915392 0.487869
vt 0.915327 0.882047
vt 0.923273 0.487869
vt 0.923243 0.882047
vt 0.929368 0.487869
vt 0.929362 0.882047
vt 0.934336 0.487869
vt 0.934345 0.882047
vt 0.938645 0.487869
vt 0.938662 0.882048
vt 0.944467 0.487865
vt 0.944484 0.882045
vt 0.985422 0.884989
vt 0.916255 0.884989
vt 0.916255 0.884989
vt 0.985422 0.884989
vt 0.983729 0.895676
vt 0.978817 0.905317
vt 0.950838 0.884989
vt 0.971166 0.912968
vt 0.961525 0.917880
vt 0.950838 0.919573
vt 0.940152 0.917880
vt 0.930511 0.912968
vt 0.922860 0.905317
vt 0.917948 0.895676
vt 0.967801 0.487866
vt 0.977484 0.882047
vt 0.987253 0.882047
vt 0.987318 0.487869
vn 0.951060 0.309006 -0.000000
vn 0.809020 0.587782 -0.000000
vn 0.809020 0.587782 -0.000000
vn 0.951060 0.309006 -0.000000
vn 0.587782 0.809019 -0.000000
vn 0.587782 0.809019 -0.000000
vn 0.309002 0.951061 -0.000000
vn 0.309002 0.951061 -0.000000
vn 0.000000 1.000000 -0.000000
vn 0.000000 1.000000 -0.000000
vn -0.309015 0.951057 -0.000000
vn -0.309015 0.951057 -0.000000
vn -0.587775 0.809024 -0.000000
vn -0.587775 0.809024 -0.000000
vn -0.809020 0.587781 -0.000000
vn -0.809020 0.587781 -0.000000
vn -0.951065 0.308992 -0.000000
vn -0.951065 0.308992 -0.000000
vn -0.987690 0.156425 -0.000000
vn -0.987690 0.156425 -0.000000
vn 0.987694 0.156396 -0.000000
vn 0.987694 0.156396 -0.000000
vn 0.000000 -0.000000 -1.000000
vn 0.000000 -0.000002 -1.000000
vn 0.000000 -0.000000 -1.000000
vn 0.000000 0.000002 -1.000000
vn 0.000000 -0.000000 -1.000000
vn 0.000000 -0.000000 -1.000000
vn 0.000000 -0.000000 -1.000000
vn 0.000000 -0.000000 -1.000000
vn 0.000000 -0.000000 -1.000000
vn 0.000000 -0.000000 -1.000000
vn 0.000000 -0.000000 -1.000000
vn 0.000000 -0.000000 -1.000000
vn 0.000000 -0.000004 1.000000
vn 0.000000 -0.000004 1.000000
vn 0.000000 -0.000001 1.000000
vn 0.000000 0.000000 1.000000
vn 0.000000 0.000000 1.000000
vn 0.000000 0.000000 1.000000
vn 0.000000 0.000000 1.000000
vn 0.000000 0.000000 1.000000
vn 0.000000 -0.000002 1.000000
vn 0.000000 -0.000002 1.000000
vn 0.000000 0.000000 1.000000
vn 0.000000 0.000000 1.000000
g pCylinder13
usemtl initialShadingGroup
f 1/10/1 2/12/2 13/13/3 12/14/4
f 2/12/2 3/15/5 14/16/6 13/13/3
f 3/15/5 4/45/7 15/17/8 14/16/6
f 4/45/7 5/18/9 16/46/10 15/17/8
f 5/18/9 6/48/11 17/47/12 16/46/10
f 6/19/11 7/21/13 18/22/14 17/20/12
f 7/21/13 8/23/15 19/24/16 18/22/14
f 8/23/15 9/25/17 20/26/18 19/24/16
f 9/25/17 10/27/19 21/28/20 20/26/18
f 11/29/21 1/10/1 12/14/4 22/30/22
f 2/1/23 1/2/24 23/3/25
f 3/4/26 2/1/23 23/3/25
f 4/5/27 3/4/26 23/3/25
f 5/6/28 4/5/27 23/3/25
f 6/7/29 5/6/28 23/3/25
f 7/8/30 6/7/29 23/3/25
f 8/9/31 7/8/30 23/3/25
f 9/11/32 8/9/31 23/3/25
f 10/33/33 9/11/32 23/3/25
f 1/2/24 11/34/34 23/3/25
f 12/35/35 13/36/36 24/37/37
f 13/36/36 14/38/38 24/37/37
f 14/38/38 15/39/39 24/37/37
f 15/39/39 16/40/40 24/37/37
f 16/40/40 17/41/41 24/37/37
f 17/41/41 18/42/42 24/37/37
f 18/42/42 19/43/43 24/37/37
f 19/43/43 20/44/44 24/37/37
f 20/44/44 21/32/45 24/37/37
f 22/31/46 12/35/35 24/37/37
